<?xml version="1.0" encoding="utf-8"?>
<!-- Generator: Adobe Illustrator 23.0.6, SVG Export Plug-In . SVG Version: 6.00 Build 0)  -->
<svg version="1.1" id="Layer_1" xmlns="http://www.w3.org/2000/svg" xmlns:xlink="http://www.w3.org/1999/xlink" x="0px" y="0px"
	 viewBox="0 0 850.39 850.39" style="enable-background:new 0 0 850.39 850.39;" xml:space="preserve">
<style type="text/css">
	.st0{fill:url(#SVGID_1_);}
	.st1{opacity:0.3;fill:#5B5B5F;enable-background:new    ;}
	.st2{fill:#333333;}
	.st3{fill:#FFFFFF;}
	.st4{fill:#666666;}
</style>
<g>
	<g>
		<linearGradient id="SVGID_1_" gradientUnits="userSpaceOnUse" x1="530.9824" y1="425.1968" x2="778.1993" y2="425.1968">
			<stop  offset="0" style="stop-color:#00F38D"/>
			<stop  offset="1" style="stop-color:#009EFF"/>
		</linearGradient>
		<circle class="st0" cx="654.59" cy="425.2" r="123.61"/>
		<path class="st1" d="M654.59,306.53v118.24h116.13C770.72,424.76,768.6,318.14,654.59,306.53z"/>
		<path class="st1" d="M654.59,543V424.76H538.47C538.47,424.76,540.58,531.39,654.59,543z"/>
		<path class="st2" d="M654.59,317.49c59.39,0,107.7,48.32,107.7,107.7s-48.32,107.7-107.7,107.7s-107.7-48.32-107.7-107.7
			S595.2,317.49,654.59,317.49 M654.59,300.26c-69,0-124.94,55.94-124.94,124.94s55.94,124.94,124.94,124.94
			S779.53,494.2,779.53,425.2S723.59,300.26,654.59,300.26L654.59,300.26z"/>
		<g>
			<path class="st3" d="M654.59,326.65c-2.35,0-4.26,1.91-4.26,4.26v4.26c0,2.36,1.91,4.26,4.26,4.26s4.26-1.91,4.26-4.26v-4.26
				C658.85,328.55,656.94,326.65,654.59,326.65z"/>
			<path class="st3" d="M654.59,509.93c-2.35,0-4.26,1.91-4.26,4.26v4.26c0,2.36,1.91,4.26,4.26,4.26s4.26-1.91,4.26-4.26v-4.26
				C658.85,511.83,656.94,509.93,654.59,509.93z"/>
			<path class="st3" d="M748.36,420.42h-4.26c-2.35,0-4.26,1.91-4.26,4.26s1.91,4.26,4.26,4.26h4.26c2.35,0,4.26-1.91,4.26-4.26
				S750.72,420.42,748.36,420.42z"/>
			<path class="st3" d="M565.08,420.42h-4.26c-2.35,0-4.26,1.91-4.26,4.26s1.91,4.26,4.26,4.26h4.26c2.35,0,4.26-1.91,4.26-4.26
				S567.43,420.42,565.08,420.42z"/>
		</g>
		<g>
			<path class="st3" d="M641.8,428.94h-34.1c-2.35,0-4.26-1.91-4.26-4.26c0-2.35,1.91-4.26,4.26-4.26h34.1
				c2.35,0,4.26,1.91,4.26,4.26C646.07,427.04,644.16,428.94,641.8,428.94z"/>
		</g>
		<g>
			<path class="st3" d="M654.59,416.16c-2.35,0-4.26-1.91-4.26-4.26v-46.89c0-2.35,1.91-4.26,4.26-4.26s4.26,1.91,4.26,4.26v46.89
				C658.85,414.25,656.95,416.16,654.59,416.16z"/>
		</g>
		<g>
			<path class="st3" d="M654.59,441.73c-9.4,0-17.05-7.65-17.05-17.05c0-9.4,7.65-17.05,17.05-17.05s17.05,7.65,17.05,17.05
				C671.64,434.08,663.99,441.73,654.59,441.73z M654.59,416.16c-4.7,0-8.52,3.82-8.52,8.52c0,4.7,3.82,8.52,8.52,8.52
				s8.52-3.82,8.52-8.52C663.12,419.98,659.29,416.16,654.59,416.16z"/>
		</g>
		<g id="surface1">
			<path class="st3" d="M717.8,412.82c5.2-16.89,3.54-35.15-4.6-50.83l3.4-5.66h3.62v-2.97h-12.35c-3.31-4.56-7.19-8.68-11.54-12.26
				l-6.39-5.25c-0.01-0.01-0.03-0.01-0.04-0.02c-0.01-0.01,0-0.02-0.01-0.02l-5.35-4.01v-5.2h-2.97v29.73h-1.49
				c-2.46,0-4.46,2-4.46,4.46c0,2.46,2,4.46,4.46,4.46h1.49v47.58h-4.46v2.97h47.58v-2.97H717.8z M687.51,366.73v46.09h-2.97v-47.58
				h1.49c0.51-0.01,1.01-0.1,1.49-0.27V366.73z M686.03,362.27h-5.95c-0.82,0-1.49-0.67-1.49-1.49c0-0.82,0.67-1.49,1.49-1.49h5.95
				c0.82,0,1.49,0.67,1.49,1.49C687.51,361.6,686.85,362.27,686.03,362.27z M687.51,342.94v13.65c-0.48-0.18-0.98-0.27-1.49-0.27
				h-1.49V335.5l2.97,2.23V342.94z M713.14,356.32l-1.59,2.65c-0.52-0.89-1.06-1.78-1.62-2.65H713.14z M690.49,346.77l2.32,2.55
				c1.19,1.3,2.3,2.65,3.36,4.03h-5.69V346.77z M690.49,356.32h7.88c0.67,0.97,1.3,1.97,1.92,2.97h-9.8V356.32z M690.49,362.27h11.5
				c0.53,0.98,1.04,1.97,1.52,2.97h-13.02V362.27z M700.67,371.19l3.72-2.97h0.46c0.41,0.98,0.81,1.97,1.18,2.97H700.67z
				 M707.01,374.16c0.31,0.99,0.59,1.98,0.85,2.97h-14.62l3.72-2.97H707.01z M690.49,368.21h9.14l-3.72,2.97h-5.42V368.21z
				 M690.49,374.16h1.71l-1.71,1.37V374.16z M690.49,380.11h18.09c0.21,0.99,0.39,1.98,0.55,2.97h-18.64V380.11z M709.67,387.13
				c0.06,0.63,0.12,1.27,0.17,1.9h-3.74L709.67,387.13z M690.49,386.05h14.87l-5.58,2.97h-9.29V386.05z M690.49,392h3.72l-3.72,1.98
				V392z M690.49,403.89h14.87l-5.58,2.97h-9.29V403.89z M690.49,411.82v-1.98h3.72L690.49,411.82z M707.2,412.82h-12.26l5.58-2.97
				h7.52C707.8,410.84,707.5,411.83,707.2,412.82z M708.69,406.87h-2.59l2.92-1.56C708.93,405.83,708.8,406.35,708.69,406.87
				L708.69,406.87z M709.64,400.92h-19.15v-2.97h19.39C709.81,398.94,709.75,399.93,709.64,400.92L709.64,400.92z M709.98,394.97
				h-15.04l5.58-2.97h9.47C710.02,392.99,710,393.98,709.98,394.97L709.98,394.97z M714.69,412.82h-4.35
				c6.59-23.02,0.79-47.8-15.33-65.51l-4.52-4.95v-2.23l3.96,3.25C714.78,360.19,722.81,387.71,714.69,412.82L714.69,412.82z"/>
		</g>
		<g id="surface1_1_">
			<path class="st3" d="M598.54,434.46c0-0.69-0.56-1.26-1.26-1.26h-2.51c-3.47,0-6.28,2.81-6.28,6.28v1.26h-2.51v2.51h2.51v15.71
				c0,1.58,0.75,3.07,2.01,4.02l8,6.01l-1.22,20.69c-0.04,0.69,0.49,1.29,1.18,1.33c0.03,0,0.05,0,0.08,0h1.74l-1.26,2.51h-5.51
				v2.51h1.74l0.78,1.55v6.95l-0.78,1.55h-1.74v2.51h27.65v-2.51h-1.74l-0.78-1.55v-6.95l0.78-1.55h1.74v-2.51h-6.28v-2.51h1.26
				c0.69,0,1.26-0.56,1.26-1.25c0-0.03,0-0.07,0-0.1l-1.18-14.98h2.44c0.52,0,0.99-0.33,1.18-0.82l0.16-0.44h2.43
				c0.58,0,1.08-0.39,1.22-0.95l1.26-5.03c0.17-0.67-0.24-1.36-0.91-1.52c-0.1-0.02-0.2-0.04-0.31-0.04h-0.86l0.78-2.07
				c0.24-0.65-0.09-1.37-0.74-1.62c-0.14-0.05-0.29-0.08-0.44-0.08h-7.28c-0.4-2.06-1.82-3.78-3.77-4.57
				c0.64-0.86,0.99-1.9,0.99-2.97v-2.51h2.51v-2.51h-2.51v-1.26c0-0.2-0.06-0.4-0.16-0.58l2.3-2.3l-1.78-1.78l-2.35,2.35
				c-0.55-0.33-1.15-0.57-1.78-0.7v-3.77h-2.51v3.77c-0.63,0.13-1.23,0.37-1.78,0.7l-2.35-2.35l-1.78,1.78l2.3,2.3
				c-0.1,0.18-0.15,0.37-0.16,0.58v1.26h-2.51v2.51h2.51v2.51c0.01,0.89,0.25,1.75,0.7,2.51h-2.79l-4.19-3.14v-1.36l0.89-0.89
				c0.24-0.23,0.37-0.56,0.37-0.89v-3.77c0-0.69-0.56-1.26-1.26-1.26v-2.51h2.51v-2.51h-1.29c0.83-1.08,1.28-2.41,1.29-3.77V434.46z
				 M591,439.49c0-2.08,1.69-3.77,3.77-3.77h1.26v1.26c0,2.08-1.69,3.77-3.77,3.77H591V439.49z M594.77,450.28l-0.89,0.89
				c-0.24,0.23-0.37,0.55-0.37,0.89v6.28c0,0.69-0.56,1.26-1.26,1.26c-0.69,0-1.26-0.56-1.26-1.26v-10.05h3.77V450.28z M598,465.48
				c1.85-0.79,3.05-2.61,3.05-4.62v-1.26h7.96c0.33,0,0.65,0.05,0.96,0.14l-10.16,7.11L598,465.48z M612.69,462.53
				c-0.01,0.01-0.01,0.02-0.02,0.03c-0.09,0.11-0.17,0.23-0.22,0.37l-1.21,3.23l-10.59,9.26l0.38-6.34l11.14-7.79
				C612.41,461.66,612.59,462.08,612.69,462.53z M608.82,474.14c0.23,0.34,0.62,0.54,1.03,0.54h0.45l-10.16,9.38l0.3-5.13l8.93-7.81
				l-0.7,1.86C608.53,473.37,608.58,473.8,608.82,474.14z M599.92,487.68l13.79-12.73l0.31,3.98l-8.51,9.57h-5.64L599.92,487.68z
				 M614.77,488.51h-5.9l5.42-6.09L614.77,488.51z M616.26,505.41l0.35,0.69h-18.55l0.35-0.69c0.09-0.17,0.13-0.37,0.13-0.56v-7.54
				c0-0.19-0.04-0.39-0.13-0.56l-0.35-0.69h18.55l-0.35,0.69c-0.09,0.18-0.13,0.37-0.13,0.56v7.54
				C616.13,505.04,616.17,505.23,616.26,505.41z M612.36,493.53h-10.53l1.26-2.51h9.28V493.53z M621.44,470.91H619l0.63-2.51h2.44
				L621.44,470.91z M620.13,465.88h-1.49c-0.58,0-1.08,0.39-1.22,0.95l-1.26,5.03c-0.02,0.1-0.04,0.2-0.04,0.31h-4.47l2.83-7.54
				h6.11L620.13,465.88z M604.82,448.74c1.39-1.39,3.64-1.39,5.03,0v0.8h-5.03V448.74z M604.82,454.57v-2.51h5.03v2.51
				c0,1.39-1.13,2.51-2.51,2.51C605.95,457.09,604.82,455.96,604.82,454.57z M598.54,458.97v1.88c0,1.39-1.13,2.51-2.51,2.51h-0.84
				l-1.87-1.41c0.09-0.03,0.18-0.07,0.26-0.1c0.09-0.03,0.14-0.05,0.21-0.08c0.17-0.08,0.33-0.16,0.48-0.26
				c0.04-0.02,0.08-0.04,0.11-0.06c0.18-0.13,0.35-0.27,0.51-0.42c0.04-0.04,0.08-0.09,0.13-0.14c0.11-0.12,0.21-0.24,0.31-0.37
				c0.05-0.07,0.09-0.13,0.13-0.2c0.08-0.12,0.15-0.25,0.21-0.39c0.04-0.08,0.07-0.15,0.1-0.23c0.06-0.15,0.1-0.29,0.14-0.45
				c0.02-0.07,0.04-0.14,0.06-0.21c0.05-0.23,0.07-0.47,0.08-0.7v-1.26L598.54,458.97z M593.51,445.78H591v-2.51h2.51V445.78z"/>
			<path class="st3" d="M606.08,498.56h2.51v3.77h-2.51V498.56z"/>
			<path class="st3" d="M601.05,498.56h2.51v3.77h-2.51V498.56z"/>
			<path class="st3" d="M611.11,498.56h2.51v3.77h-2.51V498.56z"/>
		</g>
		<g id="surface1_2_">
			<path class="st3" d="M557.77,402.4c-0.48,0.62-0.37,1.52,0.25,2c0.25,0.19,0.56,0.3,0.87,0.3h82.69c0.79,0,1.43-0.64,1.43-1.42
				c0-0.33-0.11-0.65-0.32-0.9l-18.53-22.8c-0.54-0.61-1.47-0.67-2.08-0.13c-0.05,0.04-0.09,0.08-0.13,0.13l-4.53,5.58l-6.32-7.82
				c0.18-0.14,0.33-0.33,0.43-0.55c0.23-0.51,0.14-1.11-0.23-1.53l-9.98-11.4c-0.55-0.59-1.48-0.62-2.07-0.07
				c-0.02,0.02-0.05,0.04-0.07,0.07l-9.98,11.4c-0.52,0.59-0.46,1.49,0.13,2.01c0.03,0.03,0.07,0.06,0.11,0.08l-4.67,5.78
				l-4.76-6.37c-0.27-0.36-0.68-0.57-1.13-0.57c-0.44,0.01-0.85,0.21-1.14,0.55L557.77,402.4z M623.06,382.74l15.53,19.12h-7.68
				l-11.67-14.43L623.06,382.74z M592.9,377.63h8.78v-2.85h-8.27l6.84-7.81l6.84,7.81h-2.57v2.85h3.14l8.64,10.69l10.94,13.54
				h-28.48l-12.23-16.36l0.61-0.74h5.99v-2.85h-3.69L592.9,377.63z M583.59,386.31l11.62,15.54h-33.41l17.05-21.88L583.59,386.31z"
				/>
			<path class="st3" d="M595.98,381.9h5.7v2.85h-5.7V381.9z"/>
			<path class="st3" d="M605.96,387.6h5.7v2.85h-5.7V387.6z"/>
			<path class="st3" d="M611.66,396.15h5.7V399h-5.7V396.15z"/>
			<path class="st3" d="M600.26,393.3h5.7v2.85h-5.7V393.3z"/>
			<path class="st3" d="M571.75,391.88h5.7v2.85h-5.7V391.88z"/>
			<path class="st3" d="M577.45,394.73h5.7v2.85h-5.7V394.73z"/>
			<path class="st3" d="M611.66,357.67c0,5.51,4.47,9.98,9.98,9.98s9.98-4.47,9.98-9.98s-4.47-9.98-9.98-9.98
				C616.13,347.7,611.66,352.17,611.66,357.67z M621.63,350.55c3.94,0,7.13,3.19,7.13,7.13c0,3.94-3.19,7.13-7.13,7.13
				c-3.94,0-7.13-3.19-7.13-7.13C614.51,353.74,617.7,350.55,621.63,350.55z"/>
		</g>
		<g id="surface1_3_">
			<path class="st3" d="M700.64,477.87v-6.38c0-0.73-0.6-1.33-1.33-1.33h-1.44l-2.54-27.96v-5.25c0-0.73-0.6-1.33-1.33-1.33h-1.33
				v-6.64h-2.66v6.64h-1.33c-0.73,0-1.33,0.59-1.33,1.33v5.25l-2.54,27.96h-1.44c-0.73,0-1.33,0.59-1.33,1.33v6.38l-11.52,28.16
				h-3.09v2.66h15.94v-2.66h-2.14l2.63-7.89c1.38-4.13,5.85-6.37,9.98-4.99c2.35,0.79,4.2,2.63,4.99,4.99l2.63,7.89h-2.14v2.66
				h15.94v-2.66h-3.09L700.64,477.87z M698.73,480.22l-6.06,2.85v-3.61h5.75L698.73,480.22z M699.74,482.68l2.52,6.15l-7.79-3.67
				L699.74,482.68z M690.01,483.08l-6.06-2.85l0.31-0.76h5.75V483.08z M688.22,485.17l-7.79,3.67l2.52-6.15L688.22,485.17z
				 M690.01,487.26v2.83H684L690.01,487.26z M692.67,487.26l6.01,2.83h-6.01V487.26z M693.39,450.24h-4.1l0.6-6.64h2.89
				L693.39,450.24z M689.05,452.9h4.58l0.6,6.64h-5.79L689.05,452.9z M690.01,438.28h2.66v2.66h-2.66V438.28z M688.21,462.2h6.27
				l0.72,7.97h-7.71L688.21,462.2z M684.7,472.82h13.28v3.99H684.7V472.82z M673.39,506.03l2.17-5.31h4.63l-1.77,5.31H673.39z
				 M681.34,497.3l-0.25,0.76h-4.43l2.17-5.31h5.55C682.98,493.97,681.93,495.54,681.34,497.3z M698.3,492.75h5.55l2.17,5.31h-4.43
				l-0.25-0.76C700.75,495.54,699.7,493.97,698.3,492.75z M704.26,506.03l-1.77-5.31h4.63l2.17,5.31H704.26z"/>
		</g>
	</g>
	<g>
		<g>
			<path class="st2" d="M118.89,384.67h-4.95c-0.47,0-0.89,0.19-1.26,0.56c-0.37,0.37-0.56,0.83-0.56,1.36v30.13v3.94v3.74
				c0,1.28-0.02,2.64-0.05,4.09c-0.03,1.45-0.05,3.08-0.05,4.9c-1.69,0.34-3.25,0.54-4.7,0.61c-1.45,0.07-3.05,0.1-4.8,0.1
				c-5.12,0-9.22-0.62-12.28-1.87c-3.07-1.25-5.43-2.97-7.08-5.16c-1.65-2.19-2.73-4.78-3.23-7.78c-0.51-3-0.76-6.25-0.76-9.76
				c0-0.54,0.02-1.21,0.05-2.02c0.03-0.81,0.08-1.67,0.15-2.58c0.07-0.91,0.15-1.82,0.25-2.73c0.1-0.91,0.19-1.77,0.25-2.58
				c0.07-1.35-0.44-2.02-1.52-2.02H74.1c-0.67,0-1.15,0.14-1.42,0.4c-0.27,0.27-0.47,0.78-0.61,1.52c-0.2,0.94-0.37,2.04-0.51,3.29
				c-0.14,1.25-0.25,2.51-0.35,3.79c-0.1,1.28-0.19,2.48-0.25,3.59c-0.07,1.11-0.1,1.97-0.1,2.58c0,4.79,0.54,9.05,1.62,12.79
				c1.08,3.74,2.85,6.89,5.31,9.45c2.46,2.56,5.69,4.5,9.7,5.81c4.01,1.31,8.95,1.97,14.81,1.97c2.69,0,5.37-0.12,8.04-0.35
				c2.66-0.24,5.27-0.62,7.83-1.16c0.74-0.2,1.28-0.45,1.62-0.76c0.34-0.3,0.51-0.76,0.51-1.36c0.07-0.94,0.1-2.02,0.1-3.23
				l0.1-3.84c0.07-1.35,0.1-2.63,0.1-3.84v-3.34v-38.31c0-0.54-0.17-0.99-0.51-1.36C119.76,384.86,119.36,384.67,118.89,384.67z"/>
			<path class="st2" d="M94.12,378.1h4.35c0.67,0,1.23-0.2,1.67-0.61c0.44-0.4,0.66-0.91,0.66-1.52v-5.46
				c0-0.67-0.22-1.21-0.66-1.62c-0.44-0.4-0.96-0.61-1.57-0.61h-4.45c-0.61,0-1.15,0.2-1.62,0.61c-0.47,0.4-0.71,0.94-0.71,1.62
				v5.46c0,0.61,0.22,1.11,0.66,1.52C92.89,377.9,93.44,378.1,94.12,378.1z"/>
			<path class="st2" d="M183.38,349.49h-5.16c-0.54,0-0.98,0.2-1.31,0.61c-0.34,0.4-0.51,0.88-0.51,1.42v61.67
				c0,1.75-0.29,2.8-0.86,3.13c-0.57,0.34-1.84,0.51-3.79,0.51h-36.5c-1.28,0-1.92,0.61-1.92,1.82v5.16c0,1.15,0.64,1.72,1.92,1.72
				h33.56c1.28,0,2.59-0.02,3.94-0.05c1.35-0.03,2.66-0.1,3.94-0.2c1.28-0.1,2.43-0.2,3.44-0.3c1.01-0.1,1.78-0.25,2.33-0.45
				c0.81-0.34,1.35-0.74,1.62-1.21c0.27-0.47,0.47-1.04,0.61-1.72c0.13-1.42,0.24-3.03,0.3-4.85c0.07-1.82,0.1-4.11,0.1-6.87v-58.33
				c0-0.54-0.15-1.01-0.45-1.42C184.34,349.69,183.92,349.49,183.38,349.49z"/>
			<path class="st2" d="M153.66,358.69h-4.85c-0.54,0-1,0.2-1.36,0.61c-0.37,0.4-0.56,0.88-0.56,1.42v45.09
				c0,1.28,0.64,1.92,1.92,1.92h4.75c1.21,0,1.82-0.64,1.82-1.92v-45.09c0-0.54-0.15-1.01-0.45-1.42
				C154.62,358.89,154.2,358.69,153.66,358.69z"/>
			<path class="st2" d="M137.18,351.81h2.22c0.61,0,1.11-0.4,1.52-1.21l0.51-1.01c0.13-0.34,0.39-0.64,0.76-0.91
				c0.37-0.27,0.82-0.4,1.36-0.4c0.34,0,0.74,0.05,1.21,0.15c0.47,0.1,1.04,0.32,1.72,0.66c2.36,1.01,4.21,1.67,5.56,1.97
				c1.35,0.3,2.8,0.45,4.35,0.45c1.89,0,3.66-0.25,5.31-0.76c1.65-0.51,2.95-1.13,3.89-1.87c0.61-0.47,0.91-1.04,0.91-1.72v-2.33
				c0-0.61-0.3-0.91-0.91-0.91c-0.34,0-0.78,0.14-1.31,0.4c-0.54,0.27-1.18,0.57-1.92,0.91c-0.67,0.34-1.47,0.64-2.38,0.91
				c-0.91,0.27-2.04,0.4-3.39,0.4c-1.01,0-2.01-0.12-2.98-0.35c-0.98-0.24-1.94-0.52-2.88-0.86l-3.84-1.42
				c-1.15-0.4-2.29-0.61-3.44-0.61c-1.01,0-2.02,0.17-3.03,0.51c-1.01,0.34-1.96,1.08-2.83,2.22c-0.47,0.61-0.86,1.33-1.16,2.17
				c-0.3,0.84-0.49,1.67-0.56,2.48C135.87,351.44,136.31,351.81,137.18,351.81z"/>
			<path class="st2" d="M209.77,349.49h-4.95c-0.54,0-1,0.2-1.36,0.61c-0.37,0.4-0.56,0.88-0.56,1.42v71.98
				c0,0.54,0.18,1.01,0.56,1.42c0.37,0.4,0.82,0.61,1.36,0.61h4.95c0.54,0,0.98-0.2,1.31-0.61c0.34-0.4,0.51-0.88,0.51-1.42v-71.98
				c0-0.54-0.17-1.01-0.51-1.42C210.75,349.69,210.31,349.49,209.77,349.49z"/>
			<path class="st2" d="M294.54,376.58c0.51,0.4,1.06,0.61,1.67,0.61h3.94c0.61,0,1.15-0.2,1.62-0.61c0.47-0.4,0.71-0.91,0.71-1.52
				v-5.46c0-0.67-0.24-1.21-0.71-1.62c-0.47-0.4-1.01-0.61-1.62-0.61h-3.94c-0.61,0-1.16,0.2-1.67,0.61
				c-0.51,0.4-0.76,0.94-0.76,1.62v5.46C293.78,375.67,294.03,376.18,294.54,376.58z"/>
			<path class="st2" d="M279.62,377.19h3.94c0.61,0,1.15-0.2,1.62-0.61c0.47-0.4,0.71-0.91,0.71-1.52v-5.46
				c0-0.67-0.22-1.21-0.66-1.62c-0.44-0.4-1-0.61-1.67-0.61h-3.94c-0.67,0-1.23,0.2-1.67,0.61c-0.44,0.4-0.66,0.94-0.66,1.62v5.46
				c0,0.61,0.22,1.11,0.66,1.52C278.39,376.99,278.95,377.19,279.62,377.19z"/>
			<path class="st2" d="M355.55,367.38h3.94c0.61,0,1.15-0.2,1.62-0.61c0.47-0.4,0.71-0.91,0.71-1.52v-5.46
				c0-0.67-0.22-1.21-0.66-1.62c-0.44-0.4-1-0.61-1.67-0.61h-3.94c-0.67,0-1.23,0.2-1.67,0.61c-0.44,0.4-0.66,0.94-0.66,1.62v5.46
				c0,0.61,0.22,1.11,0.66,1.52C354.32,367.18,354.87,367.38,355.55,367.38z"/>
			<path class="st2" d="M370.46,366.78c0.51,0.4,1.06,0.61,1.67,0.61h3.94c0.61,0,1.15-0.2,1.62-0.61c0.47-0.4,0.71-0.91,0.71-1.52
				v-5.46c0-0.67-0.24-1.21-0.71-1.62c-0.47-0.4-1.01-0.61-1.62-0.61h-3.94c-0.61,0-1.16,0.2-1.67,0.61
				c-0.51,0.4-0.76,0.94-0.76,1.62v5.46C369.7,365.87,369.95,366.37,370.46,366.78z"/>
			<path class="st2" d="M382.84,380.02c-1.82-0.54-4.08-0.93-6.77-1.16c-2.7-0.24-5.46-0.35-8.29-0.35
				c-7.28,0-12.99,1.92-17.14,5.76s-6.22,9.17-6.22,15.97v2.43c0,3.44,0.42,6.3,1.26,8.59c0.84,2.29,1.9,4.14,3.18,5.56h-11.73
				h-0.61h-1.01c-0.54,0-1.21-0.03-2.02-0.1c-0.81-0.07-1.6-0.19-2.38-0.35c-0.78-0.17-1.48-0.4-2.12-0.71
				c-0.64-0.3-1.06-0.72-1.26-1.26v-27.8c0-0.54-0.17-0.99-0.51-1.36c-0.34-0.37-0.78-0.56-1.31-0.56h-4.75
				c-0.54,0-1,0.19-1.36,0.56c-0.37,0.37-0.56,0.83-0.56,1.36v26.49c0,0.88-0.25,1.57-0.76,2.07c-0.51,0.51-1.11,0.88-1.82,1.11
				c-0.71,0.24-1.48,0.39-2.33,0.45c-0.84,0.07-1.57,0.1-2.17,0.1h-28.51c-5.33,0-9.59-0.49-12.79-1.47
				c-3.2-0.98-5.66-2.38-7.38-4.2c-1.72-1.82-2.85-3.98-3.39-6.47c-0.54-2.49-0.81-5.26-0.81-8.29c0-1.14,0.03-2.26,0.1-3.34
				c0.07-1.08,0.17-2.39,0.3-3.94c0.13-1.35-0.37-2.02-1.52-2.02h-4.25c-1.15,0-1.82,0.64-2.02,1.92c-0.34,1.96-0.56,3.69-0.66,5.21
				c-0.1,1.52-0.15,2.98-0.15,4.4c0,4.11,0.45,7.83,1.36,11.17s2.56,6.17,4.95,8.49c2.39,2.33,5.66,4.11,9.81,5.36
				c4.14,1.25,9.45,1.87,15.92,1.87h25.48c2.83,0,5.58-0.18,8.24-0.56c2.66-0.37,4.87-1.3,6.62-2.78c0.74,0.74,1.65,1.31,2.73,1.72
				c1.08,0.4,2.19,0.74,3.34,1.01c1.15,0.27,2.27,0.44,3.39,0.51c1.11,0.07,2.14,0.1,3.08,0.1h0.51h0.61h28.61
				c2.69,0,5.34-0.02,7.94-0.05c2.59-0.03,5.31-0.19,8.14-0.45c1.42-0.13,2.16-0.77,2.22-1.92c0.07-1.01,0.13-2.12,0.2-3.34
				c0.07-1.21,0.12-2.48,0.15-3.79c0.03-1.31,0.05-2.61,0.05-3.89v-3.74v-26.49c0-0.54-0.1-0.94-0.3-1.21
				C383.95,380.36,383.51,380.15,382.84,380.02z M375.97,416.72c-1.42,0.14-3.03,0.22-4.85,0.25c-1.82,0.03-3.51,0.05-5.05,0.05
				c-4.52,0-7.83-1.23-9.96-3.69c-2.12-2.46-3.18-6.02-3.18-10.67v-2.22c0-4.58,1.2-8.05,3.59-10.41c2.39-2.36,5.91-3.54,10.56-3.54
				c1.75,0,3.34,0.03,4.75,0.1c1.42,0.07,2.8,0.2,4.14,0.4V416.72z"/>
			<path class="st2" d="M466.44,349.59h-4.95c-0.54,0-1,0.19-1.36,0.56c-0.37,0.37-0.56,0.83-0.56,1.36v61.67
				c0,1.75-0.25,2.8-0.76,3.13c-0.51,0.34-1.74,0.51-3.69,0.51h-7.48h-0.61h-8.19v-34.57c0-0.54-0.1-0.93-0.3-1.16
				c-0.2-0.24-0.61-0.45-1.21-0.66c-1.75-0.54-3.89-0.93-6.42-1.16c-2.53-0.24-5.14-0.35-7.83-0.35c-7.68,0-13.61,2.06-17.79,6.17
				c-4.18,4.11-6.27,9.7-6.27,16.78v2.53c0,7.08,1.82,12.37,5.46,15.87c3.64,3.51,8.86,5.26,15.67,5.26h10.11v4.04
				c-0.07,2.43-0.51,4.4-1.31,5.91c-0.81,1.52-1.97,2.69-3.49,3.54c-1.52,0.84-3.34,1.42-5.46,1.72c-2.12,0.3-4.53,0.45-7.23,0.45
				c-1.08,0-2.49-0.02-4.25-0.05c-1.75-0.03-3.2-0.05-4.35-0.05c-1.08,0-1.62,0.47-1.62,1.42v4.45c0,0.47,0.1,0.82,0.3,1.06
				c0.2,0.24,0.64,0.42,1.31,0.56c0.34,0.07,0.94,0.13,1.82,0.2c0.88,0.07,1.85,0.13,2.93,0.2h3.03c1.08,0.07,1.95,0.1,2.63,0.1
				c3.5,0,6.72-0.32,9.65-0.96c2.93-0.64,5.44-1.72,7.53-3.23c2.09-1.52,3.74-3.54,4.95-6.07c1.21-2.53,1.89-5.68,2.02-9.45v-3.84
				h8.29h0.61h4.75c1.15,0,2.38-0.02,3.69-0.05c1.31-0.03,2.58-0.1,3.79-0.2c1.21-0.1,2.33-0.2,3.34-0.3s1.78-0.25,2.33-0.45
				c0.81-0.34,1.35-0.74,1.62-1.21c0.27-0.47,0.47-1.04,0.61-1.72c0.13-0.81,0.24-1.72,0.3-2.73c0.07-1.01,0.12-2.06,0.15-3.13
				c0.03-1.08,0.05-2.12,0.05-3.13v-2.73v-58.33c0-0.54-0.17-0.99-0.51-1.36C467.42,349.78,466.98,349.59,466.44,349.59z
				 M430.35,417.02h-10.01c-4.52,0-7.78-1.08-9.81-3.23c-2.02-2.16-3.03-5.63-3.03-10.41v-2.02c0-4.65,1.3-8.22,3.89-10.72
				c2.59-2.49,6.12-3.74,10.56-3.74c1.68,0,3.17,0.03,4.45,0.1c1.28,0.07,2.59,0.17,3.94,0.3V417.02z"/>
			<path class="st2" d="M493.64,350.09c-0.34-0.4-0.78-0.61-1.31-0.61h-4.95c-0.54,0-1,0.2-1.36,0.61c-0.37,0.4-0.56,0.88-0.56,1.42
				v71.98c0,0.54,0.19,1.01,0.56,1.42c0.37,0.4,0.82,0.61,1.36,0.61h4.95c0.54,0,0.98-0.2,1.31-0.61c0.34-0.4,0.51-0.88,0.51-1.42
				v-71.98C494.14,350.97,493.98,350.5,493.64,350.09z"/>
		</g>
		<g>
			<path class="st4" d="M119.42,455.54H72.8c-0.52,0-0.97,0.16-1.36,0.48c-0.39,0.32-0.58,0.74-0.58,1.26v4.26
				c0,0.52,0.19,0.91,0.58,1.16c0.39,0.26,0.84,0.39,1.36,0.39h18.9v62.51c0,0.52,0.16,0.97,0.48,1.36
				c0.32,0.39,0.74,0.58,1.26,0.58h5.33c0.52,0,0.94-0.19,1.26-0.58c0.32-0.39,0.48-0.84,0.48-1.36V463.1h18.9
				c1.23,0,1.84-0.52,1.84-1.55v-4.26C121.26,456.12,120.65,455.54,119.42,455.54z"/>
			<path class="st4" d="M143.67,474.25h-4.65c-0.52,0-0.97,0.19-1.36,0.58c-0.39,0.39-0.58,0.84-0.58,1.36v49.43
				c0,0.52,0.19,0.97,0.58,1.36c0.39,0.39,0.84,0.58,1.36,0.58h4.65c0.52,0,0.97-0.19,1.36-0.58c0.39-0.39,0.58-0.84,0.58-1.36
				v-49.43c0-0.52-0.19-0.97-0.58-1.36C144.64,474.44,144.19,474.25,143.67,474.25z"/>
			<path class="st4" d="M143.87,454.09h-4.94c-0.52,0-0.97,0.19-1.36,0.58c-0.39,0.39-0.58,0.84-0.58,1.36v7.75
				c0,0.52,0.19,0.97,0.58,1.36c0.39,0.39,0.84,0.58,1.36,0.58h4.94c0.52,0,0.97-0.19,1.36-0.58c0.39-0.39,0.58-0.84,0.58-1.36
				v-7.75c0-0.52-0.19-0.97-0.58-1.36C144.84,454.28,144.38,454.09,143.87,454.09z"/>
			<path class="st4" d="M221.13,477.3c-1.42-1.39-3.09-2.37-4.99-2.96c-1.91-0.58-3.96-0.87-6.15-0.87c-2.52,0-5.15,0.34-7.9,1.02
				c-2.75,0.68-5.48,1.66-8.19,2.96c-1.23-1.42-2.63-2.44-4.22-3.05c-1.58-0.61-3.41-0.92-5.48-0.92c-2.71,0-5.27,0.45-7.66,1.36
				c-2.39,0.91-4.56,1.97-6.49,3.2v-1.84c0-0.52-0.18-0.97-0.53-1.36c-0.36-0.39-0.79-0.58-1.31-0.58h-4.85
				c-0.52,0-0.95,0.19-1.31,0.58c-0.36,0.39-0.53,0.84-0.53,1.36v49.43c0,0.52,0.15,0.97,0.44,1.36c0.29,0.39,0.69,0.58,1.21,0.58
				h5.14c0.52,0,0.94-0.19,1.26-0.58c0.32-0.39,0.48-0.84,0.48-1.36v-40.9c2.07-1.03,4.12-1.92,6.15-2.67
				c2.04-0.74,3.92-1.11,5.67-1.11c1.23,0,2.31,0.13,3.25,0.39c0.94,0.26,1.73,0.76,2.37,1.5c0.64,0.74,1.11,1.78,1.41,3.1
				c0.29,1.32,0.44,3.05,0.44,5.18v34.5c0,0.52,0.15,0.97,0.44,1.36c0.29,0.39,0.69,0.58,1.21,0.58h5.14c0.52,0,0.94-0.19,1.26-0.58
				c0.32-0.39,0.48-0.84,0.48-1.36v-34.5c0-2.91-0.29-5.43-0.87-7.56c1.87-0.71,3.79-1.32,5.77-1.84c1.97-0.52,3.83-0.78,5.57-0.78
				c1.23,0,2.39,0.16,3.49,0.48c1.1,0.32,2.04,0.87,2.81,1.65c0.78,0.78,1.39,1.84,1.84,3.2c0.45,1.36,0.68,3.04,0.68,5.04v34.31
				c0,0.52,0.19,0.97,0.58,1.36c0.39,0.39,0.84,0.58,1.36,0.58h4.65c0.52,0,0.97-0.19,1.36-0.58c0.39-0.39,0.58-0.84,0.58-1.36
				V491.3c0-3.36-0.4-6.19-1.21-8.48C223.67,480.53,222.55,478.69,221.13,477.3z"/>
			<path class="st4" d="M278.87,479.72c-1.78-1.97-3.99-3.49-6.64-4.55c-2.65-1.07-5.75-1.6-9.3-1.6c-6.98,0-12.31,2.04-15.99,6.11
				c-3.68,4.07-5.52,9.59-5.52,16.57v8.72c0,4.52,0.63,8.27,1.89,11.24c1.26,2.97,2.91,5.35,4.94,7.12
				c2.04,1.78,4.38,3.04,7.03,3.78c2.65,0.74,5.36,1.11,8.14,1.11c3.3,0,6.31-0.15,9.06-0.44c2.75-0.29,5.51-0.69,8.29-1.21
				c0.78-0.13,1.29-0.37,1.55-0.73c0.26-0.35,0.39-0.86,0.39-1.5v-3.3c0-0.52-0.16-0.87-0.48-1.07c-0.32-0.19-0.68-0.29-1.07-0.29
				h-0.48c-2.26,0.32-4.99,0.58-8.19,0.78s-6.22,0.29-9.06,0.29c-4.46,0-7.82-1.19-10.08-3.59c-2.26-2.39-3.39-6.46-3.39-12.21
				v-1.36h32.47c1.23,0,1.84-0.71,1.84-2.13v-5.23c0-3.42-0.45-6.54-1.36-9.35C281.99,484.08,280.65,481.69,278.87,479.72z
				 M275.62,497.12h-25.68v-0.87c0-5.23,1.11-9.08,3.34-11.53c2.23-2.45,5.44-3.68,9.64-3.68c4.26,0,7.45,1.16,9.55,3.49
				c2.1,2.33,3.15,6.24,3.15,11.73V497.12z"/>
			<path class="st4" d="M349.01,455.54h-5.14c-0.52,0-0.94,0.18-1.26,0.53c-0.32,0.36-0.48,0.79-0.48,1.31v56.69
				c0,0.19-0.03,0.29-0.1,0.29l-0.19-0.29l-29.75-56.6c-0.39-0.71-0.81-1.21-1.26-1.5c-0.45-0.29-1.36-0.44-2.71-0.44h-5.33
				c-0.78,0-1.44,0.26-1.99,0.78c-0.55,0.52-0.82,1.16-0.82,1.94v68.13c0,0.52,0.16,0.84,0.48,0.97c0.32,0.13,0.74,0.19,1.26,0.19
				h5.04c0.52,0,0.94-0.18,1.26-0.53c0.32-0.35,0.48-0.79,0.48-1.31v-56.6c0-0.19,0.03-0.29,0.1-0.29c0.06,0,0.16,0.1,0.29,0.29
				L338.84,526c0.52,1.03,1.55,1.55,3.1,1.55h6.01c0.78,0,1.44-0.27,1.99-0.82c0.55-0.55,0.82-1.21,0.82-1.99v-67.36
				c0-0.52-0.16-0.95-0.48-1.31C349.95,455.72,349.53,455.54,349.01,455.54z"/>
			<path class="st4" d="M404.18,480.06c-1.81-2.07-4.07-3.67-6.78-4.8c-2.71-1.13-5.85-1.7-9.4-1.7c-3.55,0-6.67,0.57-9.35,1.7
				c-2.68,1.13-4.93,2.73-6.74,4.8c-1.81,2.07-3.17,4.55-4.07,7.46c-0.91,2.91-1.36,6.14-1.36,9.69v7.37c0,3.55,0.45,6.78,1.36,9.69
				c0.9,2.91,2.26,5.4,4.07,7.46c1.81,2.07,4.05,3.67,6.74,4.8c2.68,1.13,5.8,1.7,9.35,1.7c3.55,0,6.69-0.57,9.4-1.7
				c2.71-1.13,4.97-2.73,6.78-4.8c1.81-2.07,3.16-4.55,4.07-7.46c0.9-2.91,1.36-6.14,1.36-9.69v-7.37c0-3.55-0.45-6.78-1.36-9.69
				C407.35,484.62,405.99,482.13,404.18,480.06z M401.08,504.58c0,5.04-1.05,9-3.15,11.87c-2.1,2.88-5.41,4.31-9.93,4.31
				c-4.59,0-7.9-1.45-9.93-4.36c-2.04-2.91-3.05-6.85-3.05-11.82v-7.37c0-5.04,1.03-9,3.1-11.87c2.07-2.87,5.36-4.31,9.89-4.31
				c4.59,0,7.91,1.45,9.98,4.36c2.07,2.91,3.1,6.85,3.1,11.82V504.58z"/>
			<path class="st4" d="M493.61,474.83c-0.36-0.39-0.79-0.58-1.31-0.58h-5.23c-0.45,0-0.82,0.16-1.11,0.48
				c-0.29,0.32-0.47,0.68-0.53,1.07l-8.04,44.19c-0.13,0.58-0.26,0.92-0.39,1.02c-0.13,0.1-0.26,0.15-0.39,0.15
				c-0.32,0-0.58-0.39-0.78-1.16l-9.5-37.22c-0.32-1.1-0.79-1.86-1.41-2.28c-0.61-0.42-1.44-0.63-2.47-0.63h-5.43
				c-1.03,0-1.86,0.21-2.47,0.63c-0.61,0.42-1.08,1.18-1.41,2.28l-9.5,37.22c-0.19,0.78-0.45,1.16-0.78,1.16
				c-0.13,0-0.26-0.05-0.39-0.15c-0.13-0.1-0.26-0.44-0.39-1.02l-8.04-44.19c-0.07-0.39-0.24-0.74-0.53-1.07
				c-0.29-0.32-0.66-0.48-1.11-0.48h-5.23c-0.52,0-0.95,0.19-1.31,0.58c-0.36,0.39-0.53,0.84-0.53,1.36v0.39l9.4,44.97
				c0.32,1.49,0.65,2.68,0.97,3.59c0.32,0.91,0.78,1.58,1.36,2.04c0.58,0.45,1.32,0.74,2.23,0.87c0.9,0.13,2.1,0.19,3.59,0.19
				c1.23,0,2.28-0.1,3.15-0.29c0.87-0.19,1.6-0.55,2.18-1.07c0.58-0.52,1.07-1.23,1.45-2.13c0.39-0.9,0.78-2.07,1.16-3.49
				l8.43-32.95c0.13-0.32,0.21-0.52,0.24-0.58c0.03-0.06,0.11-0.1,0.24-0.1c0.13,0,0.21,0.03,0.24,0.1
				c0.03,0.07,0.11,0.26,0.24,0.58l8.43,32.95c0.39,1.55,0.77,2.78,1.16,3.68c0.39,0.91,0.87,1.6,1.45,2.08
				c0.58,0.48,1.29,0.81,2.13,0.97c0.84,0.16,1.9,0.24,3.2,0.24c1.42,0,2.6-0.07,3.54-0.19c0.94-0.13,1.7-0.42,2.28-0.87
				c0.58-0.45,1.03-1.11,1.36-1.99c0.32-0.87,0.64-2.08,0.97-3.63l9.4-44.97v-0.39C494.14,475.67,493.97,475.22,493.61,474.83z"/>
		</g>
	</g>
</g>
</svg>
